<?xml version="1.0" encoding="UTF-8" standalone="no"?><svg xmlns="http://www.w3.org/2000/svg" xmlns:xlink="http://www.w3.org/1999/xlink" contentStyleType="text/css" height="604px" preserveAspectRatio="none" style="width:462px;height:604px;background:#FFFFFF;" version="1.1" viewBox="0 0 462 604" width="462px" zoomAndPan="magnify"><defs/><g><!--MD5=[1021cba6479affc07c30e9ee84203d79]
cluster Working--><g id="cluster_Working"><rect height="390" rx="12.5" ry="12.5" style="stroke:#181818;stroke-width:0.5;fill:none;" width="224" x="7" y="208"/><rect height="361.7031" rx="12.5" ry="12.5" style="stroke:#00000000;stroke-width:1.0;fill:none;" width="222" x="8" y="235.2969"/><line style="stroke:#181818;stroke-width:0.5;fill:none;" x1="7" x2="231" y1="234.2969" y2="234.2969"/><text fill="#000000" font-family="sans-serif" font-size="14" lengthAdjust="spacing" textLength="60" x="89" y="224.9951">Working</text></g><g id="Working.Red"><rect fill="#F1F1F1" height="50" rx="12.5" ry="12.5" style="stroke:#181818;stroke-width:0.5;" width="50" x="123" y="270"/><line style="stroke:#181818;stroke-width:0.5;" x1="123" x2="173" y1="296.2969" y2="296.2969"/><text fill="#000000" font-family="sans-serif" font-size="14" lengthAdjust="spacing" textLength="28" x="134" y="287.9951">Red</text></g><g id="Working.Green"><rect fill="#008000" height="50" rx="12.5" ry="12.5" style="stroke:#181818;stroke-width:0.5;" width="64" x="31" y="397"/><line style="stroke:#181818;stroke-width:0.5;" x1="31" x2="95" y1="423.2969" y2="423.2969"/><text fill="#000000" font-family="sans-serif" font-size="14" lengthAdjust="spacing" textLength="44" x="41" y="414.9951">Green</text></g><g id="Working.Yellow"><rect fill="#F1F1F1" height="50" rx="12.5" ry="12.5" style="stroke:#181818;stroke-width:0.5;" width="66" x="97" y="524"/><line style="stroke:#181818;stroke-width:0.5;" x1="97" x2="163" y1="550.2969" y2="550.2969"/><text fill="#000000" font-family="sans-serif" font-size="14" lengthAdjust="spacing" textLength="46" x="107" y="541.9951">Yellow</text></g><ellipse cx="148" cy="16" fill="#222222" rx="10" ry="10" style="stroke:none;stroke-width:1.0;"/><g id="Begin"><rect fill="#F1F1F1" height="50" rx="12.5" ry="12.5" style="stroke:#181818;stroke-width:0.5;" width="61" x="117.5" y="87"/><line style="stroke:#181818;stroke-width:0.5;" x1="117.5" x2="178.5" y1="113.2969" y2="113.2969"/><text fill="#000000" font-family="sans-serif" font-size="14" lengthAdjust="spacing" textLength="41" x="127.5" y="104.9951">Begin</text></g><g id="FlashingRed"><rect fill="#F1F1F1" height="50" rx="12.5" ry="12.5" style="stroke:#181818;stroke-width:0.5;" width="106" x="349" y="270"/><line style="stroke:#181818;stroke-width:0.5;" x1="349" x2="455" y1="296.2969" y2="296.2969"/><text fill="#000000" font-family="sans-serif" font-size="14" lengthAdjust="spacing" textLength="86" x="359" y="287.9951">FlashingRed</text></g><g id="End"><rect fill="#F1F1F1" height="50" rx="12.5" ry="12.5" style="stroke:#181818;stroke-width:0.5;" width="50" x="284" y="397"/><line style="stroke:#181818;stroke-width:0.5;" x1="284" x2="334" y1="423.2969" y2="423.2969"/><text fill="#000000" font-family="sans-serif" font-size="14" lengthAdjust="spacing" textLength="27" x="295.5" y="414.9951">End</text></g><!--MD5=[562403dcf6dfe50680863d4d1aa5d204]
link *start to Begin--><g id="link_*start_Begin"><path d="M148,26.013 C148,38.698 148,62.409 148,81.57 " fill="none" id="*start-to-Begin" style="stroke:#181818;stroke-width:1.0;"/><polygon fill="#181818" points="148,86.84,152,77.84,148,81.84,144,77.84,148,86.84" style="stroke:#181818;stroke-width:1.0;"/></g><!--MD5=[c4c696cd083a74ca428e7064ce6c5ffb]
link Begin to Red--><g id="link_Begin_Red"><path d="M148,137.035 C148,170.031 148,229.298 148,264.805 " fill="none" id="Begin-to-Red" style="stroke:#181818;stroke-width:1.0;"/><polygon fill="#181818" points="148,269.865,152,260.865,148,264.865,144,260.865,148,269.865" style="stroke:#181818;stroke-width:1.0;"/><text fill="#000000" font-family="sans-serif" font-size="13" lengthAdjust="spacing" textLength="30" x="149" y="180.0669">|&gt;&gt;|</text></g><!--MD5=[c3ce7724a11473dae0c403f049e3fc0a]
link Red to Green--><g id="link_Red_Green"><path d="M131.611,320.101 C117.5,340.853 97.119,370.824 82.238,392.709 " fill="none" id="Red-to-Green" style="stroke:#181818;stroke-width:1.0;"/><polygon fill="#181818" points="79.3385,396.973,87.7071,391.7801,82.1501,392.8384,81.0918,387.2815,79.3385,396.973" style="stroke:#181818;stroke-width:1.0;"/><text fill="#000000" font-family="sans-serif" font-size="13" lengthAdjust="spacing" textLength="32" x="112" y="363.0669">|tick|</text></g><!--MD5=[1a7179e4cd26199e4a99503c305cf0cf]
link Green to Yellow--><g id="link_Green_Yellow"><path d="M75.9183,447.101 C86.995,467.766 102.972,497.575 114.689,519.435 " fill="none" id="Green-to-Yellow" style="stroke:#181818;stroke-width:1.0;"/><polygon fill="#181818" points="117.121,523.9727,116.3937,514.1507,114.7584,519.5661,109.3431,517.9309,117.121,523.9727" style="stroke:#181818;stroke-width:1.0;"/><text fill="#000000" font-family="sans-serif" font-size="13" lengthAdjust="spacing" textLength="32" x="102" y="490.0669">|tick|</text></g><!--MD5=[b1b3274e585633e6b388e787a0446e3b]
link Yellow to Red--><g id="link_Yellow_Red"><path d="M136.644,523.9705 C138.988,514.674 141.428,503.905 143,494 C147.145,467.888 155.411,402.199 153,350 C152.633,342.053 151.963,333.468 151.231,325.534 " fill="none" id="Yellow-to-Red" style="stroke:#181818;stroke-width:1.0;"/><polygon fill="#181818" points="150.717,320.16,147.5915,329.4998,151.1927,325.1373,155.5552,328.7386,150.717,320.16" style="stroke:#181818;stroke-width:1.0;"/><text fill="#000000" font-family="sans-serif" font-size="13" lengthAdjust="spacing" textLength="32" x="154" y="426.5669">|tick|</text></g><!--MD5=[a147ee41ec7d0ebcccec1671d12950a2]
link FlashingRed to Red--><g id="link_FlashingRed_Red"><path d="M370.933,269.789 C339.739,246.228 289.222,212.69 239,199 C212.415,191.753 199.123,182.572 177,199 C156.812,213.99 150.173,242.62 148.22,264.73 " fill="none" id="FlashingRed-to-Red" style="stroke:#181818;stroke-width:1.0;"/><polygon fill="#181818" points="147.836,269.911,152.4909,261.2316,148.2059,264.9247,144.5129,260.6397,147.836,269.911" style="stroke:#181818;stroke-width:1.0;"/><text fill="#000000" font-family="sans-serif" font-size="13" lengthAdjust="spacing" textLength="105" x="208.5" y="180.0669">|systemRestart|</text></g><!--MD5=[b872b08a22830bf6ea94a711554065da]
link FlashingRed to End--><g id="link_FlashingRed_End"><path d="M384.069,320.101 C368.63,340.853 346.331,370.824 330.049,392.709 " fill="none" id="FlashingRed-to-End" style="stroke:#181818;stroke-width:1.0;"/><polygon fill="#181818" points="326.876,396.973,335.4573,392.1396,329.8604,392.9614,329.0387,387.3645,326.876,396.973" style="stroke:#181818;stroke-width:1.0;"/><text fill="#000000" font-family="sans-serif" font-size="13" lengthAdjust="spacing" textLength="38" x="362" y="363.0669">|stop|</text></g><!--MD5=[0e659a0268a39daca695aff7b5e686ef]
link Working to End--><g id="link_Working_End"><path d="M231.1302,307.8177 C231.27,308.0209 231.4113,308.2263 231.5541,308.4338 C231.8396,308.8488 232.131,309.2723 232.428,309.7041 C233.0221,310.5675 233.6388,311.4638 234.2764,312.3905 C235.5516,314.2441 236.9108,316.2195 238.3408,318.298 C241.2009,322.455 244.3446,327.0242 247.668,331.8547 C260.9618,351.1767 277.1315,374.679 289.53,392.7 " fill="none" id="Working-to-End" style="stroke:#181818;stroke-width:1.0;"/><polygon fill="#181818" points="292.476,396.982,290.669,387.3003,289.6415,392.8631,284.0787,391.8356,292.476,396.982" style="stroke:#181818;stroke-width:1.0;"/><text fill="#000000" font-family="sans-serif" font-size="13" lengthAdjust="spacing" textLength="38" x="273" y="363.0669">|stop|</text></g><!--MD5=[0474f402997602f11546d50ad0cfe540]
link Working to FlashingRed--><g id="link_Working_FlashingRed"><path d="M231.2738,295 C231.3666,295 231.4601,295 231.5543,295 C231.9311,295 232.3189,295 232.7176,295 C234.3122,295 236.0798,295 238.0026,295 C245.6937,295 255.8687,295 267.395,295 C290.4475,295 318.905,295 343.707,295 " fill="none" id="Working-to-FlashingRed" style="stroke:#181818;stroke-width:1.0;"/><polygon fill="#181818" points="348.764,295,339.764,291,343.764,295,339.764,299,348.764,295" style="stroke:#181818;stroke-width:1.0;"/><text fill="#000000" font-family="sans-serif" font-size="13" lengthAdjust="spacing" textLength="89" x="241.68" y="288.0669">|systemError|</text></g><!--MD5=[ae35a58c27242bcde2b917647b81a9ca]
@startuml
state Begin {
}
state FlashingRed {
}
state End {
}
state Working {
    state Red {
    }
    state Green #green {
    }
    state Yellow {
    }
}
[*] - -> Begin
Begin - -> Red : &#124;>>&#124;
Red - -> Green : &#124;tick&#124;
Green - -> Yellow : &#124;tick&#124;
Yellow - -> Red : &#124;tick&#124;
FlashingRed - -> Red : &#124;systemRestart&#124;
FlashingRed - -> End : &#124;stop&#124;
Working - -> End : &#124;stop&#124;
Working - -> FlashingRed : &#124;systemError&#124;
@enduml

PlantUML version 1.2022.3beta2(Unknown compile time)
(GPL source distribution)
Java Runtime: Java(TM) SE Runtime Environment
JVM: Java HotSpot(TM) 64-Bit Server VM
Default Encoding: UTF-8
Language: en
Country: US
--></g></svg>